<?xml version="1.0" encoding="utf-8"?>
<!-- Uploaded to: SVG Repo, www.svgrepo.com, Generator: SVG Repo Mixer Tools -->
<svg width="800px" height="800px" viewBox="0 0 1024 1024" class="icon"  version="1.1" xmlns="http://www.w3.org/2000/svg"><path d="M512 191.648V32a32 32 0 0 0-32-32h-96a32 32 0 0 0-32 32v351.648H64v640h864v-416l-416-416z" fill="#EAEAEA" /><path d="M512 1024V32a32 32 0 0 0-32-32h-96a32 32 0 0 0-32 32v992h160z" fill="" /><path d="M608 768h224v256h-224z" fill="#434854" /><path d="M832 608l-224-224v256h224zM128 480h160v160H128z" fill="#469FCC" /><path d="M64 384h288v32H64zM928 672L512 256V192l416 416z" fill="" /><path d="M352 288H32a32 32 0 0 0-32 32v32a32 32 0 0 0 32 32h320V288zM1009.472 573.6L512 76.128v135.744l429.6 429.6a31.968 31.968 0 0 0 45.248 0l22.624-22.624a31.968 31.968 0 0 0 0-45.248z" fill="#EF4D4D" /><path d="M128 480h160v32H128zM608 416l224 224v-32l-224-224z" fill="" /><path d="M238.24 1024A126.656 126.656 0 0 0 256 960a128 128 0 0 0-256 0c0 23.424 6.752 45.088 17.76 64h220.48zM896 832a127.744 127.744 0 0 0-116.224 75.04A94.848 94.848 0 0 0 736 896a96 96 0 0 0-96 96c0 11.296 2.304 21.952 5.888 32h360.384A126.944 126.944 0 0 0 1024 960a128 128 0 0 0-128-128z" fill="#3AAD73" /><path d="M779.776 907.04A94.848 94.848 0 0 0 736 896a96 96 0 0 0-96 96c0 11.296 2.304 21.952 5.888 32h139.872A126.656 126.656 0 0 1 768 960c0-18.944 4.384-36.768 11.776-52.96z" fill="" /></svg>