<?xml version="1.0" encoding="utf-8"?>
<svg viewBox="0 0 512 512" xmlns="http://www.w3.org/2000/svg">
  <g transform="matrix(1, 0, 0, 1, 7.105427357601002e-15, 0)">
    <rect x="132.506" y="105.168" style="fill: rgb(57, 66, 64);" width="16.527" height="89.028"/>
    <rect x="320.875" y="105.168" style="fill: rgb(57, 66, 64);" width="16.527" height="89.028"/>
  </g>
  <path style="fill:#65513C;" d="M103.597,113.713l204.125-10.411V74.474L103.597,64.062c-10.47-0.534-19.251,7.811-19.251,18.294&#10;&#9;v13.063C84.347,105.903,93.129,114.247,103.597,113.713z" transform="matrix(1, 0, 0, 1, 7.105427357601002e-15, 0)"/>
  <path style="opacity:0.2;enable-background:new    ;" d="M114.616,103.797c-10.47,0.534-19.251-7.811-19.251-18.294V72.44&#10;&#9;c0-2.668,0.574-5.193,1.593-7.472c-7.289,2.394-12.612,9.233-12.612,17.388V95.42c0,10.483,8.782,18.828,19.251,18.294&#10;&#9;l204.125-10.411v-9.355L114.616,103.797z" transform="matrix(1, 0, 0, 1, 7.105427357601002e-15, 0)"/>
  <path style="fill:#C3C6C8;" d="M427.653,130.073c0-5.551-4.5-10.05-10.051-10.05h-57.22c-5.822,0-10.542-4.72-10.542-10.542&#10;&#9;s4.72-10.542,10.542-10.542h57.22c5.551,0,10.051-4.5,10.051-10.05c0-5.551-4.5-10.051-10.051-10.051h-57.22&#10;&#9;c-5.822,0-10.542-4.72-10.542-10.542l0,0c0-5.822,4.72-10.542,10.542-10.542h57.22c5.551,0,10.051-4.5,10.051-10.05&#10;&#9;c0-5.551-4.5-10.051-10.051-10.051h-74.657c-28.297,0-51.236,22.939-51.236,51.236c0,28.296,22.939,51.236,51.236,51.236h74.657&#10;&#9;C423.153,140.123,427.653,135.623,427.653,130.073z" transform="matrix(1, 0, 0, 1, 7.105427357601002e-15, 0)"/>
  <path style="opacity:0.1;enable-background:new    ;" d="M348.454,133.512c-28.297,0-51.236-22.939-51.236-51.235&#10;&#9;c0-9.308,2.504-19.143,6.843-26.734c-7.693,8.963-12.353,20.606-12.353,33.345c0,28.296,22.939,51.235,51.236,51.235h74.657&#10;&#9;c4.34,0,8.027-2.757,9.434-6.611H348.454z" transform="matrix(1, 0, 0, 1, 7.105427357601002e-15, 0)"/>
  <path style="fill: rgb(249, 235, 178);" d="M496.784,179.336H15.216C6.813,179.336,0,186.149,0,194.553v269.984c0,5.415,4.391,9.806,9.806,9.806&#10;&#9;h492.387c5.416,0,9.806-4.391,9.806-9.806V194.554C512,186.149,505.187,179.336,496.784,179.336z" transform="matrix(1, 0, 0, 1, 7.105427357601002e-15, 0)"/>
  <rect x="182.452" y="349.983" style="fill: rgb(68, 170, 184);" width="147.094" height="124.364" transform="matrix(1, 0, 0, 1, 7.105427357601002e-15, 0)"/>
  <rect x="247.736" y="349.972" style="opacity:0.1;enable-background:new    ;" width="16.527" height="124.364" transform="matrix(1, 0, 0, 1, 7.105427357601002e-15, 0)"/>
  <rect x="182.452" y="349.983" style="opacity:0.2;enable-background:new    ;" width="147.094" height="17.487" transform="matrix(1, 0, 0, 1, 7.105427357601002e-15, 0)"/>
  <path style="fill: rgb(247, 109, 87);" d="M512,219.689H0v-25.136c0-8.404,6.813-15.216,15.216-15.216h481.567&#10;&#9;c8.404,0,15.216,6.813,15.216,15.216V219.689z" transform="matrix(1, 0, 0, 1, 7.105427357601002e-15, 0)"/>
  <rect y="219.692" style="fill: rgb(253, 208, 66);" width="511.999" height="40.352" transform="matrix(1, 0, 0, 1, 7.105427357601002e-15, 0)"/>
  <path style="opacity:0.2;enable-background:new    ;" d="M33.917,455.104c-5.416,0-9.806-4.39-9.806-9.806v-265.96h-8.894&#10;&#9;C6.813,179.337,0,186.15,0,194.554v269.984c0,5.415,4.391,9.806,9.806,9.806h492.387c5.416,0,9.806-4.391,9.806-9.806v-9.434&#10;&#9;L33.917,455.104L33.917,455.104z" transform="matrix(1, 0, 0, 1, 7.105427357601002e-15, 0)"/>
  <path style="fill:#77E0C1;" d="M147.649,474.344c0-32.19-26.095-58.286-58.285-58.286s-58.286,26.096-58.286,58.286H147.649z" transform="matrix(1, 0, 0, 1, 7.105427357601002e-15, 0)"/>
  <g style="opacity:0.1;" transform="matrix(1, 0, 0, 1, 7.105427357601002e-15, 0)">
    <path d="M147.001,465.658H52.237c-3.607,0-6.402-3.151-5.99-6.734c1.793-15.579,9.732-29.282,21.327-38.639&#10;&#9;&#9;c-21.393,8.631-36.497,29.575-36.497,54.059h116.57C147.649,471.392,147.425,468.493,147.001,465.658z"/>
  </g>
  <path style="fill:#77E0C1;" d="M364.351,474.344c0-32.19,26.096-58.286,58.285-58.286c32.19,0,58.286,26.096,58.286,58.286H364.351z&#10;&#9;" transform="matrix(1, 0, 0, 1, 7.105427357601002e-15, 0)"/>
  <g style="opacity:0.1;" transform="matrix(1, 0, 0, 1, 7.105427357601002e-15, 0)">
    <path d="M480.275,465.658h-94.764c-3.607,0-6.402-3.151-5.99-6.734c1.793-15.579,9.732-29.282,21.327-38.639&#10;&#9;&#9;c-21.393,8.631-36.497,29.575-36.497,54.059h116.57C480.922,471.392,480.698,468.493,480.275,465.658z"/>
  </g>
  <path style="fill: rgb(57, 66, 64);" d="M353.691,314.182H158.309c-5.279,0-9.558,4.28-9.558,9.558v16.681c0,5.279,4.28,9.558,9.558,9.558&#10;&#9;h195.382c5.279,0,9.558-4.28,9.558-9.558V323.74C363.25,318.461,358.97,314.182,353.691,314.182z" transform="matrix(1, 0, 0, 1, 7.105427357601002e-15, 0)"/>
  <path style="opacity: 0.2; fill: rgb(57, 66, 64);" d="M169.243,340.691c-5.279,0-9.558-4.28-9.558-9.558v-16.681&#10;&#9;c0-0.091,0.011-0.18,0.013-0.27h-1.391c-5.279,0-9.558,4.28-9.558,9.558v16.681c0,5.279,4.28,9.558,9.558,9.558H353.69&#10;&#9;c5.187,0,9.401-4.136,9.545-9.288H169.243z" transform="matrix(1, 0, 0, 1, 7.105427357601002e-15, 0)"/>
  <g transform="matrix(1, 0, 0, 1, 7.105427357601002e-15, 0)">
    <rect x="321.283" y="349.972" style="fill: rgb(57, 66, 64);" width="16.527" height="124.364"/>
    <rect x="174.188" y="349.972" style="fill: rgb(57, 66, 64);" width="16.527" height="124.364"/>
  </g>
  <g style="opacity:0.2;" transform="matrix(1, 0, 0, 1, 7.105427357601002e-15, 0)">
    <rect x="103.076" y="284.138" width="33.566" height="16.527"/>
    <rect x="32.385" y="332.431" width="33.566" height="16.527"/>
    <rect x="89.733" y="369.695" width="33.567" height="16.527"/>
    <rect x="394.389" y="279.499" width="33.566" height="16.527"/>
    <rect x="263.327" y="274.927" width="33.567" height="16.527"/>
    <rect x="375.284" y="369.695" width="33.566" height="16.527"/>
    <rect x="447.354" y="334.084" width="33.566" height="16.527"/>
  </g>
</svg>