<?xml version="1.0" encoding="iso-8859-1"?>
<!-- Uploaded to: SVG Repo, www.svgrepo.com, Generator: SVG Repo Mixer Tools -->
<svg version="1.1" id="Layer_1" xmlns="http://www.w3.org/2000/svg" xmlns:xlink="http://www.w3.org/1999/xlink" 
	 viewBox="0 0 512 512" xml:space="preserve">
<rect x="47.421" y="138.055" style="fill:#EBEBEC;" width="417.427" height="365.248"/>
<rect x="47.421" y="138.055" style="fill:#D7D8D9;" width="26.089" height="365.248"/>
<path style="fill:#CF442B;" d="M47.421,242.412c19.211,0,34.786-15.574,34.786-34.786H12.636
	C12.636,226.838,28.209,242.412,47.421,242.412L47.421,242.412z"/>
<path style="fill:#FDD042;" d="M116.993,242.412c19.211,0,34.786-15.574,34.786-34.786H82.207
	C82.207,226.838,97.78,242.412,116.993,242.412L116.993,242.412z"/>
<path style="fill:#CF442B;" d="M186.564,242.412c19.211,0,34.786-15.574,34.786-34.786h-69.571
	C151.778,226.838,167.351,242.412,186.564,242.412L186.564,242.412z"/>
<path style="fill:#FDD042;" d="M256.135,242.412c19.211,0,34.786-15.574,34.786-34.786h-69.571
	C221.349,226.838,236.922,242.412,256.135,242.412L256.135,242.412z"/>
<path style="fill:#CF442B;" d="M325.706,242.412c19.211,0,34.786-15.574,34.786-34.786H290.92
	C290.92,226.838,306.493,242.412,325.706,242.412L325.706,242.412z"/>
<path style="fill:#FDD042;" d="M395.277,242.412L395.277,242.412c19.211,0,34.786-15.574,34.786-34.786h-69.571
	C360.491,226.838,376.065,242.412,395.277,242.412z"/>
<path style="fill:#CF442B;" d="M464.848,242.412c19.211,0,34.786-15.574,34.786-34.786h-69.571
	C430.063,226.838,445.636,242.412,464.848,242.412L464.848,242.412z"/>
<polygon style="fill:#E5563C;" points="56.118,7.609 108.296,7.609 82.207,207.626 12.636,207.626 "/>
<polygon style="fill:#FDDD85;" points="108.296,7.609 169.171,7.609 151.778,207.626 82.207,207.626 "/>
<polygon style="fill:#E5563C;" points="169.171,7.609 221.349,7.609 221.349,207.626 151.778,207.626 "/>
<rect x="221.345" y="7.609" style="fill:#FDDD85;" width="69.571" height="200.017"/>
<polygon style="fill:#E5563C;" points="290.92,7.609 343.099,7.609 360.491,207.626 290.92,207.626 "/>
<polygon style="fill:#FDDD85;" points="343.099,7.609 403.973,7.609 430.063,207.626 360.491,207.626 "/>
<polygon style="fill:#E5563C;" points="403.973,7.609 456.152,7.609 499.634,207.626 430.063,207.626 "/>
<rect x="82.203" y="268.501" style="fill:#74757B;" width="139.142" height="234.803"/>
<rect x="82.203" y="268.501" style="fill:#606268;" width="26.089" height="234.803"/>
<rect x="273.523" y="268.501" style="fill:#AFF0E8;" width="139.142" height="104.357"/>
<g>
	<polygon style="fill:#74DBC9;" points="387.668,268.501 283.311,372.858 355.056,372.858 412.67,315.244 412.67,268.501 	"/>
	<polygon style="fill:#74DBC9;" points="273.528,268.501 273.528,334.811 339.838,268.501 	"/>
	<polygon style="fill:#74DBC9;" points="380.602,372.858 412.67,372.858 412.67,340.79 	"/>
</g>
<circle style="fill:#FDD042;" cx="177.863" cy="385.902" r="17.393"/>
<path d="M4.484,207.686c0,0.023-0.271,0.046-0.271,0.068c0.062,20.831,14.944,38.211,34.511,42.024v175.259
	c0,4.504,3.65,8.153,8.153,8.153s8.153-3.649,8.153-8.153V249.779c11.958-2.106,20.619-8.346,26.904-17.024
	c7.808,10.779,20.623,17.81,34.921,17.81s27.045-7.031,34.854-17.81c7.808,10.779,20.521,17.81,34.819,17.81
	c14.298,0,26.995-7.031,34.803-17.81c7.808,10.779,20.496,17.81,34.794,17.81c14.298,0,26.982-7.031,34.79-17.81
	c7.808,10.779,20.49,17.81,34.788,17.81s26.978-7.031,34.787-17.81c7.808,10.779,20.489,17.81,34.786,17.81
	s26.706-7.031,34.514-17.81c6.285,8.677,15.49,14.919,26.361,17.024v36.117c0,4.504,3.649,8.153,8.153,8.153
	c4.504,0,8.153-3.649,8.153-8.153v-36.117c20.654-3.812,34.991-21.191,35.054-42.021c0.01-0.625,0.087-1.252-0.047-1.863
	L464.05,6.149C463.235,2.401,459.987,0,456.152,0H56.118c-3.835,0-7.152,2.401-7.967,6.149L4.669,206.031
	C4.534,206.615,4.484,207.088,4.484,207.686z M47.421,234.803c-11.843,0-21.905-8.696-25.357-18.48h50.713
	C69.327,226.106,59.264,234.803,47.421,234.803z M116.993,234.803c-11.843,0-21.905-8.696-25.356-18.48h50.713
	C138.898,226.106,128.835,234.803,116.993,234.803z M186.564,234.803c-11.843,0-21.905-8.696-25.357-18.48h50.713
	C208.469,226.106,198.406,234.803,186.564,234.803z M256.135,234.803c-11.843,0-21.905-8.696-25.357-18.48h50.713
	C278.04,226.106,267.977,234.803,256.135,234.803z M298.53,16.306h37.094l15.974,183.711H298.53V16.306z M325.706,234.803
	c-11.843,0-21.905-8.696-25.356-18.48h50.713C347.611,226.106,337.548,234.803,325.706,234.803z M395.277,234.803
	c-11.843,0-21.905-8.696-25.357-18.48h50.713C417.182,226.106,407.119,234.803,395.277,234.803z M464.848,234.803
	c-11.843,0-21.905-8.696-25.356-18.48h50.713C486.753,226.106,476.691,234.803,464.848,234.803z M449.581,16.306l39.937,183.711
	h-52.297L413.259,16.306H449.581z M396.815,16.306l23.962,183.711h-52.811L351.991,16.306H396.815z M282.224,200.017h-53.265V16.306
	h53.265V200.017z M212.653,200.017h-51.982l15.974-183.711h36.007V200.017z M144.304,200.017H91.493l23.962-183.711h44.823
	L144.304,200.017z M62.688,16.306h36.322L75.048,200.017H22.751L62.688,16.306z"/>
<path d="M412.67,260.892H273.528c-4.504,0-8.696,3.106-8.696,7.609v96.747h-8.696c-4.503,0-8.153,3.649-8.153,8.153
	c0,4.504,3.65,8.153,8.153,8.153h173.928c4.504,0,8.153-3.649,8.153-8.153c0-4.504-3.649-8.153-8.153-8.153h-9.783v-96.747
	C420.279,263.997,417.172,260.892,412.67,260.892z M281.137,365.248v-88.051h122.837v88.051H281.137z"/>
<path d="M177.867,360.357c-14.086,0-25.546,11.46-25.546,25.546c0,14.086,11.46,25.546,25.546,25.546
	c14.086,0,25.546-11.46,25.546-25.546C203.413,371.816,191.953,360.357,177.867,360.357z M177.867,395.142
	c-5.095,0-9.24-4.145-9.24-9.24c0-5.095,4.145-9.24,9.24-9.24c5.095,0,9.24,4.145,9.24,9.24
	C187.107,390.997,182.962,395.142,177.867,395.142z"/>
<path d="M499.634,495.694h-27.176V320.675c0-4.504-3.649-8.153-8.153-8.153c-4.504,0-8.153,3.649-8.153,8.153v175.019H228.959
	V268.501c0-4.504-3.107-7.609-7.609-7.609H82.207c-4.503,0-8.696,3.106-8.696,7.609v227.193h-18.48v-35.872
	c0-4.504-3.65-8.153-8.153-8.153s-8.153,3.649-8.153,8.153v35.872H12.636c-4.503,0-8.153,3.649-8.153,8.153
	c0,4.504,3.65,8.153,8.153,8.153h486.998c4.504,0,8.153-3.649,8.153-8.153C507.787,499.344,504.136,495.694,499.634,495.694z
	 M89.816,495.694V277.197h122.837v218.497H89.816z"/>
</svg>