<?xml version="1.0" encoding="iso-8859-1"?>
<!-- Uploaded to: SVG Repo, www.svgrepo.com, Generator: SVG Repo Mixer Tools -->
<svg fill="#000000" height="800px" width="800px" version="1.1" id="Layer_1" xmlns="http://www.w3.org/2000/svg" xmlns:xlink="http://www.w3.org/1999/xlink" 
	 viewBox="0 0 512.002 512.002" xml:space="preserve">
<g>
	<g>
		<circle cx="175.08" cy="87.836" r="33.027"/>
	</g>
</g>
<g>
	<g>
		<path d="M217.72,131.386c-7.72,0-60.302,0-68.218,0c-14.276,0-27.157,7.908-33.617,20.639l-15.102,29.761L81.18,152.47
			c-4.892-7.318-14.792-9.281-22.104-4.389c-7.316,4.892-9.281,14.788-4.389,22.104l34.738,51.951
			c6.774,10.134,21.95,9.203,27.457-1.647l15.6-30.742c0,19.419,0.008,83.018,0.008,247.698c0,10.562,8.561,19.122,19.122,19.122
			c10.539,0,19.122-8.553,19.122-19.122c0-1.711,0.013-151.838-0.025-153.344h8.282c0,5.991,0,148.115,0,153.971
			c0,10.562,8.561,19.122,19.122,19.122s19.122-8.561,19.122-19.122c0-148.227-0.31-230.147-0.344-268.753
			c-0.001-1.877,1.482-3.417,3.358-3.485s3.47,1.36,3.603,3.232c0,0,0,0.001,0,0.002V286.14h0.001
			c0.044,8.775,7.464,15.855,16.227,15.855c0.027,0,0.056,0,0.082,0c8.8-0.044,15.606-7.214,15.561-16.016V168.908
			C255.622,148.218,238.41,131.386,217.72,131.386z"/>
	</g>
</g>
<g>
	<g>
		<path d="M54.211,80.047C24.32,80.047,0,104.366,0,134.259c0,26.062,18.489,47.883,43.037,53.048v246.912H28.459
			c-6.172,0-11.174,5.004-11.174,11.174s5.004,11.174,11.174,11.174h51.504c6.173,0.001,11.175-5.003,11.175-11.173
			c0-6.172-5.004-11.174-11.174-11.174H65.386V217.948c-27.867-41.674-26.979-39.902-28.741-44.402
			c-5.626-14.368-0.74-31.206,12.613-40.137H22.371c0.453-17.178,14.557-31.013,31.842-31.013c17.161,0,31.188,13.637,31.832,30.643
			c6.595,4.23,9.169,8.657,12.645,13.858c8.259-16.274,8.002-15.927,9.458-18.128C105.386,101.445,82.251,80.047,54.211,80.047z"/>
	</g>
</g>
<g>
	<g>
		<path d="M491.037,263.752l-22.343-119.783c-1.185-6.347-6.725-10.949-13.182-10.949H258.496
			c6.58,7.424,11.171,16.644,12.926,26.817h45.488c-1.743,2.885-1.541,5.202-1.541,7.604c0,5.891,4.775,10.665,10.665,10.665h34.932
			c5.89,0,10.665-4.775,10.665-10.665c0-2.406,0.202-4.719-1.541-7.604h74.283l16.966,90.547c-2.454-0.316-19.836,0-19.836,0
			c-1.622-23.001-20.84-41.305-44.246-41.305c-23.405,0-42.623,18.304-44.245,41.305h-80.376l0.179,35.512
			c0.045,8.743-3.319,16.981-9.47,23.194c-1.503,1.517-3.128,2.866-4.853,4.044c1.651,3.558,2.578,7.521,2.578,11.701
			c0,15.109-12.037,27.394-27.037,27.802v84.316c0,7.021-2.032,13.572-5.529,19.111c1.821,0.325,3.69,0.504,5.604,0.504
			c17.505,0,31.695-14.19,31.695-31.695v-28.447h28.637v10.473c0,6.15,4.986,11.137,11.137,11.137h75.848
			c6.15,0,11.137-4.987,11.137-11.137v-10.473h28.637v28.447c0,17.505,14.19,31.695,31.695,31.695
			c17.505,0,31.695-14.19,31.695-31.695v-28.447h5.648c12.019,0,21.764-9.744,21.764-21.764v-66.21
			C512,290.481,503.844,274.419,491.037,263.752z M374.767,374.442h-62.532c-5.587,0-10.117-4.53-10.117-10.117
			c0-5.587,4.53-10.117,10.117-10.117h62.532c5.587,0,10.117,4.53,10.117,10.117C384.884,369.911,380.354,374.442,374.767,374.442z
			 M391.471,335.895h-95.94c-5.587,0-10.117-4.53-10.117-10.117c0-5.587,4.53-10.117,10.117-10.117h95.94
			c5.587,0,10.117,4.53,10.117,10.117C401.588,331.365,397.058,335.895,391.471,335.895z M375.49,250.383
			c1.536-10.652,10.697-18.956,21.768-18.956c11.071,0,20.234,8.303,21.769,18.956H375.49z M453.736,352.655
			c-15.356,0-27.804-12.456-27.804-27.822c0-15.365,12.448-27.821,27.804-27.821c15.356,0,27.804,12.456,27.804,27.821
			C481.54,340.199,469.091,352.655,453.736,352.655z"/>
	</g>
</g>
</svg>