<?xml version="1.0" encoding="iso-8859-1"?>
<!-- Uploaded to: SVG Repo, www.svgrepo.com, Generator: SVG Repo Mixer Tools -->
<svg fill="#000000" height="800px" width="800px" version="1.1" id="Layer_1" xmlns="http://www.w3.org/2000/svg" xmlns:xlink="http://www.w3.org/1999/xlink" 
	 viewBox="0 0 512 512" xml:space="preserve">
<g>
	<g>
		<path d="M512,268.454l-55.496-90.266H375.93V90.895H326.57h-30.417H277.21h-30.417h-18.942h-30.417h-18.942h-30.417h-18.942
			H98.716h-18.94H49.359H0v230.826h37.915v56.178h56.937c0,0.074-0.006,0.147-0.006,0.222c0,23.701,19.282,42.984,42.983,42.984
			c23.701,0,42.984-19.283,42.984-42.984c0-0.074-0.005-0.147-0.006-0.222h15.215c0,0.074-0.006,0.147-0.006,0.222
			c0,23.701,19.282,42.984,42.984,42.984s42.984-19.283,42.984-42.984c0-0.074-0.005-0.147-0.006-0.222h102.677
			c0,0.074-0.006,0.147-0.006,0.222c0,23.701,19.282,42.984,42.984,42.984s42.984-19.283,42.984-42.984
			c0-0.074-0.005-0.147-0.006-0.222H512V268.454z M49.359,291.304H37.915h-7.498V121.313h18.942V291.304z M433.085,208.604h6.413
			l30.09,48.942h-36.503V208.604z M326.57,121.313h18.942v56.875v113.117H326.57V121.313z M277.21,121.313h18.943v169.992H277.21
			V121.313z M227.852,121.313h18.942v169.992h-18.942V121.313z M178.493,121.313h18.942v169.992h-18.942V121.313z M129.134,121.313
			h18.942v169.992h-18.942V121.313z M79.776,121.313h18.942v169.992H79.776V121.313z M137.829,390.686
			c-6.928,0-12.565-5.637-12.565-12.566c0-2.601,0.795-5.02,2.154-7.027c0.25-0.369,0.521-0.718,0.804-1.054
			c0.122-0.145,0.253-0.281,0.381-0.42c0.189-0.205,0.382-0.405,0.583-0.595c0.146-0.139,0.295-0.275,0.447-0.407
			c0.214-0.185,0.436-0.359,0.662-0.528c0.143-0.107,0.282-0.22,0.43-0.321c0.369-0.253,0.748-0.491,1.142-0.704
			c0.088-0.048,0.182-0.085,0.271-0.131c0.329-0.168,0.665-0.326,1.009-0.463c0.142-0.057,0.287-0.106,0.432-0.158
			c0.306-0.111,0.615-0.21,0.93-0.296c0.152-0.042,0.305-0.082,0.46-0.119c0.331-0.077,0.665-0.138,1.003-0.189
			c0.139-0.02,0.275-0.048,0.416-0.064c0.477-0.055,0.958-0.089,1.444-0.089c0.002,0,0.003,0,0.005,0
			c0.484,0,0.963,0.034,1.438,0.089c0.143,0.016,0.284,0.044,0.426,0.065c0.333,0.05,0.663,0.109,0.989,0.186
			c0.158,0.038,0.315,0.078,0.471,0.122c0.309,0.085,0.613,0.184,0.915,0.291c0.149,0.054,0.299,0.104,0.445,0.163
			c0.336,0.136,0.664,0.289,0.987,0.453c0.096,0.049,0.197,0.089,0.292,0.141c0.391,0.211,0.768,0.447,1.136,0.7
			c0.151,0.104,0.294,0.219,0.44,0.33c0.222,0.167,0.44,0.339,0.651,0.52c0.154,0.133,0.305,0.271,0.452,0.412
			c0.199,0.19,0.39,0.387,0.578,0.59c0.13,0.14,0.262,0.277,0.385,0.423c0.283,0.336,0.554,0.685,0.803,1.053
			c1.36,2.008,2.155,4.426,2.155,7.027C150.394,385.049,144.757,390.686,137.829,390.686z M238.998,390.686
			c-6.929,0-12.566-5.637-12.566-12.566c0-2.601,0.795-5.02,2.154-7.027c0.249-0.369,0.52-0.718,0.803-1.053
			c0.123-0.145,0.255-0.282,0.383-0.422c0.189-0.204,0.38-0.403,0.58-0.593c0.147-0.14,0.296-0.276,0.449-0.409
			c0.213-0.184,0.433-0.357,0.657-0.525c0.144-0.108,0.285-0.222,0.434-0.324c0.368-0.253,0.746-0.49,1.139-0.702
			c0.09-0.049,0.188-0.088,0.279-0.135c0.328-0.166,0.659-0.322,1.001-0.459c0.144-0.058,0.291-0.107,0.437-0.16
			c0.304-0.109,0.611-0.209,0.924-0.294c0.154-0.043,0.308-0.083,0.465-0.12c0.328-0.077,0.661-0.137,0.997-0.188
			c0.14-0.021,0.279-0.048,0.42-0.064c0.477-0.055,0.957-0.089,1.444-0.089c0.487,0,0.967,0.034,1.444,0.089
			c0.142,0.016,0.28,0.044,0.42,0.064c0.336,0.051,0.669,0.111,0.998,0.188c0.156,0.037,0.309,0.077,0.463,0.12
			c0.313,0.086,0.623,0.186,0.928,0.296c0.144,0.052,0.29,0.101,0.432,0.158c0.345,0.139,0.681,0.296,1.012,0.464
			c0.088,0.045,0.18,0.082,0.268,0.129c0.393,0.213,0.774,0.45,1.143,0.705c0.147,0.101,0.285,0.213,0.428,0.319
			c0.226,0.17,0.449,0.345,0.664,0.53c0.152,0.132,0.3,0.267,0.446,0.406c0.201,0.191,0.394,0.391,0.583,0.596
			c0.129,0.139,0.26,0.276,0.382,0.421c0.279,0.331,0.544,0.675,0.791,1.037c1.366,2.011,2.166,4.435,2.166,7.043
			C251.564,385.049,245.927,390.686,238.998,390.686z M427.631,390.686c-6.929,0-12.566-5.637-12.566-12.566
			c0-2.608,0.8-5.033,2.166-7.043c0.246-0.362,0.512-0.707,0.791-1.037c0.122-0.145,0.253-0.281,0.382-0.421
			c0.19-0.205,0.382-0.406,0.583-0.596c0.146-0.138,0.294-0.274,0.446-0.406c0.215-0.186,0.438-0.361,0.664-0.53
			c0.142-0.107,0.281-0.219,0.428-0.319c0.37-0.253,0.749-0.492,1.143-0.705c0.087-0.047,0.18-0.084,0.268-0.129
			c0.331-0.168,0.667-0.326,1.012-0.464c0.142-0.058,0.288-0.106,0.432-0.158c0.305-0.109,0.614-0.21,0.928-0.296
			c0.153-0.043,0.307-0.083,0.463-0.12c0.328-0.077,0.662-0.137,0.998-0.188c0.14-0.021,0.278-0.048,0.42-0.064
			c0.477-0.055,0.957-0.089,1.444-0.089s0.967,0.034,1.444,0.089c0.142,0.016,0.28,0.044,0.42,0.064
			c0.336,0.051,0.668,0.111,0.997,0.188c0.156,0.036,0.311,0.077,0.465,0.12c0.312,0.086,0.62,0.185,0.924,0.294
			c0.146,0.053,0.294,0.102,0.437,0.16c0.341,0.137,0.673,0.293,1.001,0.459c0.092,0.047,0.189,0.085,0.279,0.135
			c0.392,0.212,0.771,0.449,1.139,0.702c0.149,0.102,0.29,0.216,0.434,0.324c0.224,0.168,0.444,0.342,0.657,0.525
			c0.153,0.133,0.303,0.269,0.449,0.409c0.2,0.191,0.392,0.389,0.58,0.593c0.129,0.14,0.261,0.276,0.383,0.422
			c0.283,0.337,0.554,0.685,0.803,1.053c1.359,2.008,2.154,4.426,2.154,7.027C440.196,385.049,434.56,390.686,427.631,390.686z
			 M481.585,347.482h-23.806v-0.001c-3.882-3.824-8.437-6.847-13.405-8.948c-0.012-0.005-0.024-0.011-0.036-0.016
			c-0.554-0.233-1.113-0.452-1.676-0.662c-0.113-0.042-0.223-0.087-0.336-0.129c-0.474-0.172-0.955-0.331-1.436-0.487
			c-0.202-0.066-0.401-0.136-0.603-0.199c-0.407-0.125-0.818-0.236-1.229-0.35c-0.278-0.077-0.554-0.159-0.833-0.23
			c-0.354-0.09-0.713-0.166-1.07-0.247c-0.337-0.076-0.671-0.158-1.011-0.227c-0.328-0.066-0.659-0.119-0.99-0.177
			c-0.368-0.065-0.735-0.136-1.107-0.192c-0.334-0.05-0.671-0.086-1.007-0.129c-0.37-0.047-0.737-0.099-1.109-0.137
			c-0.4-0.04-0.801-0.063-1.203-0.091c-0.311-0.022-0.62-0.054-0.935-0.069c-0.719-0.036-1.441-0.055-2.166-0.055
			c-0.725,0-1.447,0.019-2.166,0.055c-0.31,0.015-0.615,0.047-0.924,0.068c-0.406,0.029-0.811,0.053-1.215,0.092
			c-0.371,0.036-0.737,0.09-1.104,0.137c-0.337,0.043-0.675,0.078-1.01,0.129c-0.371,0.056-0.738,0.127-1.106,0.192
			c-0.331,0.059-0.662,0.112-0.991,0.177c-0.338,0.068-0.669,0.149-1.004,0.225c-0.36,0.081-0.72,0.158-1.077,0.249
			c-0.278,0.071-0.552,0.152-0.828,0.228c-0.413,0.114-0.825,0.225-1.234,0.351c-0.202,0.062-0.399,0.132-0.6,0.198
			c-0.483,0.156-0.963,0.315-1.44,0.488c-0.112,0.041-0.221,0.086-0.332,0.128c-0.564,0.21-1.124,0.429-1.678,0.663
			c-0.014,0.006-0.027,0.012-0.042,0.018c-4.966,2.101-9.52,5.122-13.401,8.946H269.146c-3.881-3.823-8.434-6.845-13.401-8.946
			c-0.014-0.006-0.027-0.012-0.042-0.018c-0.554-0.233-1.114-0.452-1.678-0.663c-0.111-0.042-0.22-0.086-0.332-0.128
			c-0.476-0.173-0.957-0.332-1.44-0.488c-0.201-0.065-0.398-0.135-0.6-0.198c-0.409-0.126-0.821-0.237-1.234-0.351
			c-0.276-0.076-0.549-0.158-0.828-0.228c-0.357-0.09-0.717-0.167-1.077-0.249c-0.335-0.076-0.666-0.157-1.004-0.225
			c-0.328-0.066-0.66-0.119-0.991-0.177c-0.368-0.065-0.734-0.136-1.106-0.192c-0.335-0.051-0.673-0.086-1.01-0.129
			c-0.368-0.047-0.734-0.099-1.104-0.137c-0.403-0.041-0.809-0.064-1.215-0.092c-0.308-0.022-0.613-0.053-0.924-0.068
			c-0.719-0.036-1.441-0.055-2.166-0.055c-0.725,0-1.447,0.019-2.166,0.055c-0.313,0.015-0.622,0.047-0.935,0.069
			c-0.401,0.028-0.803,0.052-1.203,0.091c-0.372,0.037-0.74,0.09-1.109,0.137c-0.336,0.043-0.672,0.078-1.007,0.129
			c-0.371,0.056-0.738,0.127-1.107,0.192c-0.33,0.059-0.661,0.112-0.99,0.177c-0.34,0.069-0.674,0.15-1.011,0.227
			c-0.357,0.081-0.715,0.157-1.07,0.247c-0.28,0.071-0.556,0.153-0.833,0.23c-0.411,0.114-0.822,0.224-1.229,0.35
			c-0.203,0.063-0.401,0.133-0.603,0.199c-0.482,0.156-0.961,0.314-1.436,0.487c-0.113,0.042-0.223,0.086-0.336,0.129
			c-0.564,0.21-1.122,0.429-1.676,0.662c-0.012,0.005-0.024,0.011-0.036,0.016c-4.968,2.101-9.523,5.123-13.405,8.948h-40.873
			c-4.331-4.268-9.5-7.535-15.149-9.638c-0.099-0.038-0.197-0.077-0.297-0.114c-0.488-0.177-0.98-0.341-1.474-0.5
			c-0.189-0.061-0.375-0.128-0.566-0.187c-0.419-0.129-0.843-0.244-1.265-0.36c-0.266-0.073-0.53-0.152-0.798-0.22
			c-0.366-0.093-0.736-0.172-1.105-0.256c-0.324-0.074-0.648-0.153-0.975-0.219c-0.34-0.069-0.683-0.123-1.025-0.184
			c-0.357-0.063-0.712-0.132-1.072-0.186c-0.346-0.052-0.693-0.089-1.041-0.133c-0.359-0.045-0.715-0.096-1.077-0.133
			c-0.411-0.042-0.823-0.065-1.236-0.094c-0.301-0.021-0.599-0.052-0.901-0.067c-0.719-0.036-1.442-0.055-2.167-0.055
			c-0.011,0-0.021,0.001-0.031,0.001c-0.714,0.001-1.425,0.018-2.133,0.054c-0.323,0.016-0.642,0.048-0.963,0.071
			c-0.391,0.028-0.783,0.051-1.172,0.089c-0.381,0.037-0.757,0.092-1.136,0.14c-0.326,0.042-0.655,0.076-0.979,0.125
			c-0.38,0.057-0.754,0.129-1.131,0.197c-0.321,0.057-0.645,0.108-0.964,0.172c-0.347,0.07-0.69,0.153-1.033,0.232
			c-0.349,0.079-0.7,0.154-1.045,0.242c-0.288,0.073-0.571,0.157-0.857,0.236c-0.404,0.112-0.807,0.22-1.206,0.344
			c-0.21,0.065-0.417,0.138-0.625,0.206c-0.474,0.154-0.947,0.309-1.414,0.48c-0.12,0.044-0.237,0.092-0.356,0.137
			c-0.557,0.208-1.109,0.424-1.656,0.654c-0.019,0.008-0.037,0.016-0.056,0.024c-4.962,2.101-9.511,5.12-13.39,8.941H68.332v-25.76
			h11.444h18.942h30.417h18.942h30.417h18.942h30.417h18.942h30.417h18.943h30.417h49.359V208.605h26.739v79.36h78.914V347.482z"/>
	</g>
</g>
</svg>